<svg width="16" height="16" viewBox="0 0 16 16" fill="none" xmlns="http://www.w3.org/2000/svg">
<g clip-path="url(#clip0_7585_24716)">
<path d="M4.89686 12.8592H4.19999V12.2436C4.19999 11.9654 3.97499 11.7373 3.69374 11.7373H2.57499C2.29686 11.7373 2.06874 11.9623 2.06874 12.2436V12.8592H1.37186C1.17811 12.8592 1.01874 13.0186 1.01874 13.2123V15.6467C1.01874 15.8404 1.17811 15.9998 1.37186 15.9998H4.89374C5.08749 15.9998 5.24686 15.8404 5.24686 15.6467V13.2123C5.24999 13.0154 5.09061 12.8592 4.89686 12.8592ZM3.64999 12.8592H2.61874V12.2904H3.65311V12.8592H3.64999Z" fill="#99A3AE"/>
<path d="M8.11876 2.63125C8.84536 2.63125 9.43438 2.04222 9.43438 1.31562C9.43438 0.589025 8.84536 0 8.11876 0C7.39216 0 6.80313 0.589025 6.80313 1.31562C6.80313 2.04222 7.39216 2.63125 8.11876 2.63125Z" fill="#99A3AE"/>
<path d="M14.6 10.1941H14.3156V8.50664H14.5469C14.6156 8.50664 14.6719 8.45039 14.6719 8.38164V7.96289C14.6719 7.89414 14.6156 7.83789 14.5469 7.83789H12.8969C12.9906 7.56602 12.8906 7.25664 12.6375 7.09727L11.3344 6.26602L11.325 4.55352C11.3219 3.72852 10.6469 3.05664 9.82188 3.05664C9.46875 3.05664 6.76563 3.05664 6.40938 3.05664C5.58438 3.05664 4.90938 3.72852 4.90625 4.55352L4.88125 9.21914C4.87813 9.56914 5.1625 9.85664 5.5125 9.85664H5.51563C5.86563 9.85664 6.15 9.57539 6.15 9.22539L6.175 4.55664C6.175 4.48789 6.23125 4.43477 6.29688 4.43477C6.36563 4.43477 6.41875 4.49102 6.41875 4.55664V15.2379C6.41875 15.6598 6.75938 16.0004 7.18125 16.0004C7.60313 16.0004 7.94375 15.6598 7.94375 15.2379V9.14414H8.27188V15.2379C8.27188 15.6598 8.6125 16.0004 9.03438 16.0004C9.45625 16.0004 9.79688 15.6598 9.79688 15.2379C9.79688 5.28789 9.78438 10.741 9.78438 4.56289C9.78438 4.49102 9.84375 4.43164 9.91563 4.42852C9.9875 4.42852 10.0469 4.48477 10.05 4.55664L10.0625 6.61602C10.0625 6.83164 10.175 7.03164 10.3563 7.14727L11.7938 8.06289V8.37852C11.7938 8.44727 11.85 8.50352 11.9188 8.50352H12.15V10.191H11.8656C11.6563 10.191 11.4844 10.3629 11.4844 10.5723V14.9441C11.4844 15.1535 11.6563 15.3254 11.8656 15.3254H12.15V15.7379C12.15 15.8816 12.2656 15.9973 12.4094 15.9973C12.5531 15.9973 12.6688 15.8816 12.6688 15.7379V15.3254H13.7906V15.7379C13.7906 15.8816 13.9063 15.9973 14.05 15.9973C14.1938 15.9973 14.3094 15.8816 14.3094 15.7379V15.3254H14.5938C14.8031 15.3254 14.975 15.1535 14.975 14.9441V10.5754C14.9813 10.3629 14.8094 10.1941 14.6 10.1941ZM13.7969 10.1941H12.675V8.50664H13.7969V10.1941Z" fill="#99A3AE"/>
</g>
<defs>
<clipPath id="clip0_7585_24716">
<rect width="16" height="16" fill="white"/>
</clipPath>
</defs>
</svg>
