<svg width="16" height="16" viewBox="0 0 16 16" fill="none" xmlns="http://www.w3.org/2000/svg">
<path d="M15.2486 9.05676C15.1189 9.05676 15.0108 9.16216 15.0108 9.29459V10.7378H0.956757V5.23784C0.956757 5.10811 0.851351 5 0.718919 5C0.586486 5 0.486486 5.10811 0.486486 5.23784V15.0351C0.486486 15.1649 0.591892 15.273 0.724324 15.273C0.856757 15.273 0.962162 15.1676 0.962162 15.0351V12.8973H15.0162V15.0351C15.0162 15.1649 15.1216 15.273 15.2541 15.273C15.3865 15.273 15.4919 15.1676 15.4919 15.0351V9.29189C15.4865 9.16216 15.3811 9.05676 15.2486 9.05676Z" fill="#99A3AE"/>
<path d="M5.17297 8.60774C5.17297 9.48342 4.46216 10.1969 3.58378 10.1969C2.70811 10.1969 1.99459 9.48612 1.99459 8.60774C1.99459 7.73207 2.70541 7.01855 3.58378 7.01855C4.46216 7.01855 5.17297 7.72937 5.17297 8.60774Z" fill="#99A3AE"/>
<path d="M6.0838 10.1942H13.8541C13.9838 10.1942 14.0919 10.0888 14.0919 9.95635C14.0892 8.14824 12.6243 6.68066 10.8162 6.68066H6.0865C5.95677 6.68066 5.84866 6.78607 5.84866 6.9185V9.95906C5.84596 10.0888 5.95137 10.1942 6.0838 10.1942Z" fill="#99A3AE"/>
<path d="M3.58379 0.68655C2.50811 0.68655 1.63784 1.55952 1.63514 2.6325C1.63514 3.70817 2.50811 4.57844 3.58109 4.57844C4.65677 4.57844 5.52975 3.70547 5.52975 2.6325C5.53245 2.11628 5.32704 1.61898 4.96218 1.25141C4.59731 0.889252 4.10271 0.683847 3.58379 0.68655ZM4.10812 3.21628C4.03785 3.32709 3.8919 3.35952 3.78109 3.28655L3.30541 2.98114C3.23784 2.9379 3.1973 2.86223 3.1973 2.78114V1.8379C3.1973 1.70817 3.30271 1.60006 3.43514 1.60006C3.56487 1.60006 3.67298 1.70547 3.67298 1.8379V2.65682L4.04055 2.89196C4.14596 2.96223 4.17839 3.10817 4.10812 3.21628Z" fill="#99A3AE"/>
</svg>
