<svg width="30" height="30" viewBox="0 0 30 30" fill="none" xmlns="http://www.w3.org/2000/svg">
<path d="M18.0094 18.0942C18.0094 18.3529 17.7978 18.5645 17.5392 18.5645C17.2806 18.5645 17.069 18.3529 17.069 18.0942C17.069 17.8356 17.2806 17.624 17.5392 17.624C17.7978 17.624 18.0094 17.8356 18.0094 18.0942Z" fill="white"/>
<path d="M23.9059 7.92822C23.8495 7.82006 23.746 7.74483 23.6238 7.72132C23.5956 7.71662 23.5627 7.71191 23.5344 7.71191H11.8871C11.6614 7.71191 11.478 7.8953 11.478 8.121V12.9219C11.478 13.1476 11.6614 13.331 11.8871 13.331C12.1128 13.331 12.2962 13.1476 12.2962 12.9219V8.53009H20.7413L14.9059 10.2746C14.7319 10.3263 14.6144 10.4862 14.6144 10.6696V28.6508C14.6144 28.7824 14.6755 28.9047 14.7789 28.9799C14.8824 29.0551 15.0188 29.0834 15.141 29.0457L23.6614 26.4972C23.8354 26.4454 23.9529 26.2856 23.9529 26.1022V8.13041C23.9529 8.1069 23.9529 8.08339 23.9482 8.05988C23.9435 8.01285 23.9294 7.96583 23.9059 7.92822ZM17.5391 19.3827C16.8244 19.3827 16.2507 18.8044 16.2507 18.0896C16.2507 17.3749 16.8291 16.8012 17.5391 16.8012C18.2492 16.8012 18.8322 17.3796 18.8322 18.0896C18.8322 18.8044 18.2539 19.3827 17.5391 19.3827Z" fill="white"/>
<path d="M12.301 25.6929V21.4892C12.301 21.2635 12.1176 21.0801 11.8919 21.0801C11.6662 21.0801 11.4828 21.2635 11.4828 21.4892V26.102C11.4828 26.3277 11.6662 26.5111 11.8919 26.5111H14.6192V25.6882H12.301V25.6929Z" fill="white"/>
<path d="M18.0093 6.45579C19.5328 6.45579 20.7648 5.21911 20.7648 3.70031C20.7648 2.1768 19.5281 0.944824 18.0093 0.944824C16.4905 0.944824 15.2538 2.1815 15.2538 3.70031C15.2491 4.43385 15.5407 5.13448 16.0579 5.65642C16.5752 6.16896 17.2758 6.45579 18.0093 6.45579ZM17.2194 2.84921C17.3416 2.65642 17.5955 2.6047 17.7883 2.72695L18.4419 3.14545C18.5595 3.22068 18.63 3.35235 18.63 3.49341V4.79592C18.63 5.02162 18.4466 5.20501 18.2209 5.20501C17.9952 5.20501 17.8118 5.02162 17.8118 4.79592V3.71441L17.3463 3.41818C17.1535 3.29592 17.0971 3.042 17.2194 2.84921Z" fill="white"/>
<path d="M6.79936 17.5059H13.3777C13.6034 17.5059 13.7868 17.3225 13.7868 17.0968C13.7868 16.8711 13.6034 16.6877 13.3777 16.6877H6.79936L8.50625 14.9808C8.66613 14.8209 8.66613 14.5623 8.50625 14.3977C8.34638 14.2379 8.08776 14.2379 7.92318 14.3977L5.51566 16.8053C5.35578 16.9651 5.35578 17.2238 5.51566 17.3883L7.92318 19.7958C8.08306 19.9557 8.34168 19.9557 8.50625 19.7958C8.66613 19.636 8.66613 19.3774 8.50625 19.2128L6.79936 17.5059Z" fill="white"/>
</svg>
