<svg width="30" height="30" viewBox="0 0 30 30" fill="none" xmlns="http://www.w3.org/2000/svg">
<g clip-path="url(#clip0_7585_24610)">
<path d="M30 9.23955V9.88286C29.5907 11.1431 28.605 11.8894 27.5659 12.5713C25.5263 13.9093 23.2802 14.8222 21.0066 15.6652C15.742 17.6166 10.337 19.0772 4.84194 20.2112C4.01545 20.3822 3.17915 20.5844 2.32571 20.4067C2.00589 20.3399 1.68301 20.2425 1.39138 20.0991C0.970479 19.892 0.656792 19.28 1.08382 18.7647C1.28846 18.5178 1.49983 18.2734 1.73754 18.0602C1.8999 17.9143 1.88213 17.8126 1.78533 17.6442C1.27069 16.7497 0.768298 15.8484 0.262845 14.9496C-0.11701 14.2745 0.0447348 13.8358 0.763397 13.5515C1.41099 13.2954 2.03469 13.3304 2.64858 13.6569C3.6019 14.1648 4.55521 14.6721 5.51527 15.1671C5.61636 15.2192 5.78729 15.2394 5.8798 15.1892C7.15722 14.503 8.42606 13.8015 9.69674 13.1037C9.73718 13.081 9.77271 13.0491 9.82724 13.0099C8.8972 12.4064 7.98249 11.8134 7.06838 11.2203C5.98212 10.5157 4.89463 9.81179 3.80959 9.10538C3.09399 8.63975 3.11605 8.02524 3.82552 7.54185C4.93017 6.78826 6.08934 6.63755 7.38207 6.99228C10.5906 7.87146 13.8127 8.69918 17.0329 9.53547C17.2142 9.58265 17.4415 9.56795 17.618 9.50178C19.3224 8.86521 21.0275 8.23478 22.8018 7.81142C23.899 7.5492 25.0055 7.42238 26.1328 7.50141C26.2155 7.50692 26.297 7.5204 26.3865 7.57983C25.7064 7.88739 25.027 8.19495 24.3469 8.50251C24.2758 8.53437 24.2048 8.56623 24.1337 8.59809C23.3109 8.96875 23.3011 8.9853 23.363 9.94903C23.4573 9.9092 23.5455 9.87428 23.6313 9.83507C25.0368 9.18932 26.4447 8.54908 27.8453 7.89168C28.067 7.78814 28.2625 7.77221 28.4849 7.85186C28.9186 8.00748 29.3573 8.16493 29.6404 8.55091C29.7917 8.75738 29.8818 9.00858 30 9.23955Z" fill="white"/>
<path d="M24.1453 20.6184C24.1116 21.524 23.752 22.2322 22.9868 22.7076C22.765 22.8455 22.5236 22.9552 22.2828 23.0587C21.868 23.237 21.5556 23.1751 21.2554 22.8363C20.0018 21.421 18.7532 20.0021 17.5083 18.5789C17.2467 18.2799 17.3251 17.9809 17.7 17.8473C19.4688 17.2181 21.24 16.5944 23.0125 15.975C23.404 15.8384 23.6056 15.9781 23.6607 16.4253C23.7912 17.4883 23.9113 18.5531 24.0344 19.6173C24.0736 19.9555 24.1098 20.2949 24.1453 20.6184Z" fill="white"/>
</g>
<defs>
<clipPath id="clip0_7585_24610">
<rect width="30" height="30" fill="white"/>
</clipPath>
</defs>
</svg>
