<svg width="16" height="16" viewBox="0 0 16 16" fill="none" xmlns="http://www.w3.org/2000/svg">
<path d="M9.60502 9.6502C9.60502 9.78813 9.49217 9.90098 9.35424 9.90098C9.21631 9.90098 9.10345 9.78813 9.10345 9.6502C9.10345 9.51227 9.21631 9.39941 9.35424 9.39941C9.49217 9.39941 9.60502 9.51227 9.60502 9.6502Z" fill="#99A3AE"/>
<path d="M12.7498 4.22864C12.7197 4.17096 12.6646 4.13084 12.5994 4.1183C12.5843 4.11579 12.5668 4.11328 12.5517 4.11328H6.33981C6.21943 4.11328 6.12163 4.21109 6.12163 4.33146V6.89196C6.12163 7.01233 6.21943 7.11014 6.33981 7.11014C6.46019 7.11014 6.55799 7.01233 6.55799 6.89196V4.54964H11.0621L7.94984 5.48005C7.85705 5.50763 7.79435 5.5929 7.79435 5.69071V15.2807C7.79435 15.3509 7.82696 15.4161 7.88213 15.4562C7.9373 15.4963 8.01003 15.5114 8.07523 15.4913L12.6194 14.1321C12.7122 14.1045 12.7749 14.0192 12.7749 13.9214V4.33648C12.7749 4.32394 12.7749 4.3114 12.7724 4.29886C12.7699 4.27378 12.7624 4.2487 12.7498 4.22864ZM9.35423 10.3377C8.97304 10.3377 8.66708 10.0293 8.66708 9.64806C8.66708 9.26687 8.97555 8.96092 9.35423 8.96092C9.73291 8.96092 10.0439 9.26938 10.0439 9.64806C10.0439 10.0293 9.73542 10.3377 9.35423 10.3377Z" fill="#99A3AE"/>
<path d="M6.56051 13.7034V11.4613C6.56051 11.341 6.4627 11.2432 6.34233 11.2432C6.22195 11.2432 6.12415 11.341 6.12415 11.4613V13.9215C6.12415 14.0419 6.22195 14.1397 6.34233 14.1397H7.79687V13.7008H6.56051V13.7034Z" fill="#99A3AE"/>
<path d="M9.60503 3.44308C10.4176 3.44308 11.0746 2.78352 11.0746 1.97349C11.0746 1.16096 10.4151 0.503906 9.60503 0.503906C8.79499 0.503906 8.13542 1.16347 8.13542 1.97349C8.13291 2.36472 8.2884 2.73838 8.56427 3.01675C8.84013 3.29011 9.2138 3.44308 9.60503 3.44308ZM9.18371 1.51958C9.24891 1.41676 9.38434 1.38917 9.48716 1.45437L9.83575 1.67757C9.89845 1.7177 9.93607 1.78792 9.93607 1.86315V2.55782C9.93607 2.6782 9.83826 2.776 9.71788 2.776C9.59751 2.776 9.4997 2.6782 9.4997 2.55782V1.98102L9.25142 1.82303C9.1486 1.75782 9.1185 1.6224 9.18371 1.51958Z" fill="#99A3AE"/>
<path d="M3.62634 9.33686H7.1348C7.25518 9.33686 7.35298 9.23905 7.35298 9.11868C7.35298 8.9983 7.25518 8.9005 7.1348 8.9005H3.62634L4.53668 7.99015C4.62195 7.90489 4.62195 7.76696 4.53668 7.67918C4.45141 7.59392 4.31348 7.59392 4.22571 7.67918L2.9417 8.96319C2.85643 9.04846 2.85643 9.18639 2.9417 9.27416L4.22571 10.5582C4.31098 10.6434 4.44891 10.6434 4.53668 10.5582C4.62195 10.4729 4.62195 10.335 4.53668 10.2472L3.62634 9.33686Z" fill="#99A3AE"/>
</svg>
