<svg width="30" height="30" viewBox="0 0 30 30" fill="none" xmlns="http://www.w3.org/2000/svg">
<path d="M28.5913 16.9814C28.348 16.9814 28.1453 17.1791 28.1453 17.4274V20.1334H1.79396V9.82095C1.79396 9.5777 1.59632 9.375 1.34801 9.375C1.0997 9.375 0.912201 9.5777 0.912201 9.82095V28.1909C0.912201 28.4341 1.10984 28.6368 1.35815 28.6368C1.60646 28.6368 1.80409 28.4392 1.80409 28.1909V24.1824H28.1554V28.1909C28.1554 28.4341 28.3531 28.6368 28.6014 28.6368C28.8497 28.6368 29.0473 28.4392 29.0473 28.1909V17.4223C29.0372 17.1791 28.8396 16.9814 28.5913 16.9814Z" fill="white"/>
<path d="M9.6993 16.1404C9.6993 17.7823 8.36653 19.1201 6.71957 19.1201C5.07768 19.1201 3.73984 17.7873 3.73984 16.1404C3.73984 14.4985 5.07261 13.1606 6.71957 13.1606C8.36653 13.1606 9.6993 14.4934 9.6993 16.1404Z" fill="white"/>
<path d="M11.407 19.1152H25.9763C26.2195 19.1152 26.4222 18.9175 26.4222 18.6692C26.4172 15.279 23.6706 12.5273 20.2804 12.5273H11.4121C11.1689 12.5273 10.9662 12.725 10.9662 12.9733V18.6743C10.9611 18.9175 11.1587 19.1152 11.407 19.1152Z" fill="white"/>
<path d="M6.71961 1.28716C4.70271 1.28716 3.07096 2.92398 3.06589 4.93581C3.06589 6.9527 4.70271 8.58446 6.71454 8.58446C8.73143 8.58446 10.3683 6.94763 10.3683 4.93581C10.3733 3.9679 9.98819 3.03547 9.30407 2.34628C8.61994 1.66723 7.69258 1.28209 6.71961 1.28716ZM7.70271 6.0304C7.57096 6.23817 7.29731 6.29898 7.08954 6.16216L6.19765 5.58952C6.07096 5.50844 5.99494 5.36655 5.99494 5.21452V3.44594C5.99494 3.2027 6.19258 3 6.44089 3C6.68413 3 6.88683 3.19763 6.88683 3.44594V4.98142L7.57602 5.42229C7.77366 5.55405 7.83447 5.8277 7.70271 6.0304Z" fill="white"/>
</svg>
