<svg width="16" height="16" viewBox="0 0 16 16" fill="none" xmlns="http://www.w3.org/2000/svg">
<g clip-path="url(#clip0_7585_24762)">
<path d="M16 4.92783V5.27092C15.7817 5.94306 15.256 6.34105 14.7018 6.70473C13.614 7.41837 12.4161 7.90524 11.2035 8.35486C8.39571 9.39558 5.51305 10.1746 2.58237 10.7794C2.14157 10.8706 1.69555 10.9784 1.24037 10.8836C1.06981 10.848 0.897606 10.7961 0.742069 10.7196C0.517587 10.6092 0.350287 10.2827 0.578037 10.0079C0.687174 9.87624 0.799905 9.74586 0.926687 9.63215C1.01328 9.55438 1.0038 9.50014 0.952174 9.41028C0.677698 8.93322 0.409757 8.45256 0.140182 7.97321C-0.0624074 7.61312 0.0238565 7.37916 0.407143 7.22755C0.752525 7.09096 1.08516 7.10959 1.41258 7.28375C1.92101 7.55463 2.42944 7.82518 2.94147 8.0892C2.99539 8.11698 3.08655 8.12776 3.13589 8.10097C3.81718 7.735 4.4939 7.36086 5.17159 6.98869C5.19316 6.9766 5.21211 6.9596 5.24119 6.93869C4.74517 6.61684 4.25732 6.30054 3.7698 5.98423C3.19046 5.60846 2.61047 5.23302 2.03178 4.85627C1.65013 4.60793 1.66189 4.28019 2.04028 4.02238C2.62942 3.62047 3.24764 3.54009 3.9371 3.72928C5.64833 4.19818 7.36675 4.63963 9.08418 5.08565C9.1809 5.11081 9.30213 5.10297 9.39624 5.06768C10.3053 4.72818 11.2146 4.39195 12.1609 4.16616C12.7462 4.0263 13.3363 3.95867 13.9375 4.00082C13.9816 4.00376 14.0251 4.01095 14.0728 4.04264C13.7101 4.20667 13.3477 4.37071 12.985 4.53474C12.9471 4.55173 12.9092 4.56872 12.8713 4.58571C12.4325 4.7834 12.4272 4.79222 12.4602 5.30621C12.5106 5.28497 12.5576 5.26635 12.6034 5.24544C13.3529 4.90103 14.1038 4.55957 14.8508 4.20896C14.9691 4.15374 15.0733 4.14524 15.1919 4.18772C15.4233 4.27072 15.6572 4.3547 15.8082 4.56055C15.8889 4.67067 15.9369 4.80464 16 4.92783Z" fill="#99A3AE"/>
<path d="M12.8775 10.9964C12.8595 11.4794 12.6677 11.8571 12.2596 12.1107C12.1413 12.1842 12.0126 12.2427 11.8842 12.2979C11.6629 12.393 11.4963 12.36 11.3362 12.1793C10.6676 11.4245 10.0017 10.6677 9.33774 9.90866C9.19822 9.7492 9.24004 9.58974 9.44002 9.51851C10.3834 9.18293 11.328 8.85029 12.2733 8.51994C12.4821 8.44707 12.5896 8.52157 12.619 8.76011C12.6886 9.32703 12.7527 9.89493 12.8184 10.4625C12.8393 10.6429 12.8586 10.8239 12.8775 10.9964Z" fill="#99A3AE"/>
</g>
<defs>
<clipPath id="clip0_7585_24762">
<rect width="16" height="16" fill="white"/>
</clipPath>
</defs>
</svg>
