<svg width="30" height="30" viewBox="0 0 30 30" fill="none" xmlns="http://www.w3.org/2000/svg">
<g clip-path="url(#clip0_7585_25003)">
<path d="M9.18155 24.1123H7.87491V22.958C7.87491 22.4365 7.45303 22.0088 6.92569 22.0088H4.82803C4.30655 22.0088 3.87881 22.4307 3.87881 22.958V24.1123H2.57217C2.20889 24.1123 1.91006 24.4111 1.91006 24.7744V29.3389C1.91006 29.7021 2.20889 30.001 2.57217 30.001H9.17569C9.53897 30.001 9.8378 29.7021 9.8378 29.3389V24.7744C9.84366 24.4053 9.54483 24.1123 9.18155 24.1123ZM6.84366 24.1123H4.91006V23.0459H6.84952V24.1123H6.84366Z" fill="white"/>
<path d="M15.2227 4.93359C16.5851 4.93359 17.6895 3.82917 17.6895 2.4668C17.6895 1.10442 16.5851 0 15.2227 0C13.8603 0 12.7559 1.10442 12.7559 2.4668C12.7559 3.82917 13.8603 4.93359 15.2227 4.93359Z" fill="white"/>
<path d="M27.375 19.1133H26.8418V15.9492H27.2753C27.4043 15.9492 27.5097 15.8438 27.5097 15.7148V14.9297C27.5097 14.8008 27.4043 14.6953 27.2753 14.6953H24.1816C24.3574 14.1855 24.1699 13.6055 23.6953 13.3066L21.2519 11.748L21.2343 8.53711C21.2285 6.99023 19.9628 5.73047 18.416 5.73047C17.7539 5.73047 12.6855 5.73047 12.0175 5.73047C10.4707 5.73047 9.20503 6.99023 9.19918 8.53711L9.1523 17.2852C9.14644 17.9414 9.67964 18.4805 10.3359 18.4805H10.3418C10.998 18.4805 11.5312 17.9531 11.5312 17.2969L11.5781 8.54297C11.5781 8.41406 11.6836 8.31445 11.8066 8.31445C11.9355 8.31445 12.0351 8.41992 12.0351 8.54297V28.5703C12.0351 29.3613 12.6738 30 13.4648 30C14.2558 30 14.8945 29.3613 14.8945 28.5703V17.1445H15.5097V28.5703C15.5097 29.3613 16.1484 30 16.9394 30C17.7304 30 18.3691 29.3613 18.3691 28.5703C18.3691 9.91406 18.3457 20.1387 18.3457 8.55469C18.3457 8.41992 18.457 8.30859 18.5918 8.30273C18.7265 8.30273 18.8378 8.4082 18.8437 8.54297L18.8671 12.4043C18.8671 12.8086 19.0781 13.1836 19.4179 13.4004L22.1132 15.1172V15.709C22.1132 15.8379 22.2187 15.9434 22.3476 15.9434H22.7812V19.1074H22.248C21.8554 19.1074 21.5332 19.4297 21.5332 19.8223V28.0195C21.5332 28.4121 21.8554 28.7344 22.248 28.7344H22.7812V29.5078C22.7812 29.7773 22.998 29.9941 23.2675 29.9941C23.5371 29.9941 23.7539 29.7773 23.7539 29.5078V28.7344H25.8574V29.5078C25.8574 29.7773 26.0742 29.9941 26.3437 29.9941C26.6132 29.9941 26.83 29.7773 26.83 29.5078V28.7344H27.3632C27.7558 28.7344 28.0781 28.4121 28.0781 28.0195V19.8281C28.0898 19.4297 27.7675 19.1133 27.375 19.1133ZM25.8691 19.1133H23.7656V15.9492H25.8691V19.1133Z" fill="white"/>
</g>
<defs>
<clipPath id="clip0_7585_25003">
<rect width="30" height="30" fill="white"/>
</clipPath>
</defs>
</svg>
