<svg width="30" height="30" viewBox="0 0 30 30" fill="none" xmlns="http://www.w3.org/2000/svg">
<path d="M27.2557 18.7079C27.1775 20.0749 25.8161 21.1902 24.454 21.0719C23.7246 21.008 23.1342 20.7012 22.63 20.1947C21.7097 19.2696 20.7909 18.342 19.8203 17.3634C18.8664 18.3308 17.95 19.2592 17.0337 20.1883C16.4488 20.7803 15.7458 21.0831 14.9085 21.0487C14.1727 21.0176 13.5568 20.7172 13.0423 20.1979C12.1227 19.2712 11.204 18.3436 10.2621 17.3945C10.1654 17.4864 10.0887 17.5551 10.016 17.6278C9.14598 18.4946 8.28075 19.3654 7.40674 20.2283C6.44006 21.1822 5.20813 21.3643 4.07128 20.6948C3.3227 20.2538 2.85373 19.5795 2.81539 18.7047C2.77144 17.7045 2.71472 16.6875 2.84415 15.7008C3.11498 13.6356 4.83744 12.2551 7.00968 12.2463C9.10523 12.2375 11.2008 12.2447 13.2955 12.2447H13.667V9.54199H16.3737V12.2231C16.5215 12.2311 16.643 12.2431 16.7644 12.2439C18.8504 12.2447 20.9355 12.2447 23.0215 12.2439C24.6433 12.2439 25.896 12.9126 26.7404 14.3083C27.1175 14.9307 27.2861 15.6193 27.2901 16.3423C27.2941 17.1309 27.3005 17.921 27.2557 18.7079Z" fill="white"/>
<path d="M27.2741 22.637C27.2749 24.5568 27.2757 26.4773 27.2741 28.3971C27.2725 29.4086 26.7341 29.9406 25.717 29.9406C18.5803 29.9414 11.4437 29.9414 4.30776 29.9406C3.54639 29.9406 3.0279 29.6035 2.84415 28.9755C2.79621 28.8102 2.77464 28.6312 2.77385 28.4579C2.76905 26.4885 2.77065 24.52 2.77145 22.5507C2.77145 22.486 2.78183 22.4213 2.79062 22.323C2.90167 22.3821 2.98636 22.4229 3.06705 22.4692C4.37167 23.2178 5.73062 23.3328 7.1407 22.8119C7.79262 22.5715 8.34307 22.1752 8.82641 21.6823C9.2762 21.2229 9.72599 20.7627 10.1973 20.281C10.2964 20.3729 10.3739 20.44 10.4466 20.5119C10.9124 20.9696 11.3606 21.4466 11.8447 21.8844C13.6407 23.507 16.4656 23.4918 18.24 21.8405C18.7729 21.3443 19.2498 20.7891 19.7723 20.2402C20.2868 20.7571 20.7406 21.2109 21.1936 21.6663C22.082 22.5603 23.1437 23.0748 24.4132 23.1227C25.2672 23.1547 26.0749 22.9717 26.8283 22.5627C26.9625 22.4892 27.0928 22.4101 27.2589 22.3142C27.2653 22.4508 27.2741 22.5435 27.2741 22.637Z" fill="white"/>
<path d="M17.0209 7.26781C16.2251 8.12984 15.2297 8.34714 14.1144 7.99482C13.1685 7.69523 12.4311 6.73493 12.332 5.73949C12.2745 5.15628 12.3696 4.61222 12.6564 4.10891C13.4138 2.78191 14.1807 1.46131 14.9437 0.138304C14.9621 0.107147 14.9884 0.0799837 15.0268 0.03125C15.0787 0.108745 15.1242 0.168663 15.161 0.232576C15.8824 1.47888 16.6078 2.72279 17.3213 3.97309C17.9756 5.12033 17.8829 6.33388 17.0209 7.26781Z" fill="white"/>
</svg>
