<svg width="16" height="16" viewBox="0 0 16 16" fill="none" xmlns="http://www.w3.org/2000/svg">
<path d="M14.5364 9.97736C14.4946 10.7064 13.7686 11.3012 13.0421 11.2382C12.6531 11.2041 12.3382 11.0405 12.0693 10.7703C11.5785 10.2769 11.0885 9.78222 10.5708 9.26026C10.062 9.77625 9.57332 10.2714 9.0846 10.7669C8.77271 11.0826 8.39775 11.2441 7.95121 11.2258C7.55878 11.2092 7.23027 11.049 6.95587 10.772C6.46544 10.2778 5.97544 9.78307 5.47308 9.27688C5.42153 9.32588 5.38062 9.36252 5.34185 9.40129C4.87784 9.8636 4.41639 10.328 3.95025 10.7882C3.43468 11.297 2.77766 11.3941 2.17134 11.037C1.77209 10.8018 1.52198 10.4422 1.50153 9.97566C1.47809 9.4422 1.44784 8.89979 1.51687 8.37357C1.66131 7.27214 2.57995 6.53586 3.73848 6.53117C4.85611 6.52648 5.97374 6.53032 7.09094 6.53032H7.28907V5.08887H8.73265V6.51882C8.81148 6.52308 8.87624 6.52947 8.94101 6.52989C10.0535 6.53032 11.1656 6.53032 12.2781 6.52989C13.1431 6.52989 13.8112 6.88653 14.2616 7.6309C14.4627 7.96282 14.5526 8.33011 14.5547 8.71572C14.5568 9.13627 14.5602 9.55767 14.5364 9.97736Z" fill="#99A3AE"/>
<path d="M14.5462 12.0732C14.5466 13.0971 14.547 14.1214 14.5462 15.1453C14.5453 15.6847 14.2582 15.9685 13.7157 15.9685C9.90951 15.9689 6.10327 15.9689 2.29747 15.9685C1.8914 15.9685 1.61487 15.7887 1.51687 15.4538C1.49131 15.3656 1.47981 15.2701 1.47938 15.1777C1.47682 14.1273 1.47767 13.0775 1.4781 12.0272C1.4781 11.9927 1.48364 11.9581 1.48833 11.9057C1.54755 11.9373 1.59272 11.959 1.63575 11.9837C2.33155 12.3829 3.05633 12.4443 3.80837 12.1665C4.15606 12.0382 4.44963 11.8269 4.70741 11.564C4.9473 11.319 5.18719 11.0736 5.43858 10.8167C5.49141 10.8657 5.53274 10.9014 5.57152 10.9398C5.81993 11.1839 6.05896 11.4383 6.31717 11.6718C7.27501 12.5372 8.78166 12.5291 9.728 11.6484C10.0122 11.3838 10.2666 11.0876 10.5452 10.7949C10.8196 11.0706 11.0617 11.3126 11.3032 11.5555C11.7771 12.0323 12.3433 12.3067 13.0204 12.3322C13.4759 12.3493 13.9066 12.2517 14.3084 12.0336C14.38 11.9944 14.4495 11.9522 14.5381 11.901C14.5415 11.9739 14.5462 12.0233 14.5462 12.0732Z" fill="#99A3AE"/>
<path d="M9.07778 3.8761C8.6534 4.33585 8.1225 4.45174 7.52768 4.26384C7.02319 4.10406 6.62992 3.5919 6.57708 3.06099C6.5464 2.74995 6.59711 2.45979 6.75007 2.19135C7.154 1.48362 7.56304 0.779298 7.96996 0.0736973C7.97976 0.0570799 7.99382 0.0425929 8.01427 0.0166016C8.04197 0.057932 8.06625 0.0898886 8.08585 0.123976C8.47061 0.788672 8.85749 1.45209 9.23799 2.11892C9.58695 2.73078 9.53753 3.378 9.07778 3.8761Z" fill="#99A3AE"/>
</svg>
